<svg xmlns="http://www.w3.org/2000/svg" xmlns:xlink="http://www.w3.org/1999/xlink" viewBox="0 0 1024 1024"><defs><style>.cls-1{fill:#ff0d0d;stroke:#ff0d0d;stroke-miterlimit:10;opacity:0.01;}</style></defs><g id="Layer_1" data-name="Layer 1"><image width="1024" height="1024" xlink:href="parcel%2033%20fourth%20floor1.png"/></g><g id="fourth_floor_parcel33"><polygon id="conferense" class="cls-1" points="36 500 75.23 10.21 371.06 10.21 362.89 291.4 372.08 416.08 383.57 416 381.79 500 36 500"/><polygon id="lobby" class="cls-1" points="989.11 500 381.79 500 382.72 416.01 383.57 338.47 387.32 335.74 390.64 291.06 528 291.06 526.98 384 702.64 384 704.19 427.94 716.68 428.17 736.47 321.32 973.28 321.96 989.11 500"/><polyline id="mens" class="cls-1" points="390.64 291.06 377.87 152.17 377.87 141.28 381.96 10.21 531.74 10.21 531.74 152.85 528 291.06"/><path id="elevator" class="cls-1" d="M724.83,233.83l-184.06-.47V10.21h177.7Zm-195.54,9.74L528,291.06,527,384H702.64l22.47-140.43Z"/><polygon id="penthouse_gym" class="cls-1" points="738.38 311.23 973.28 311.23 949.45 10.04 729.7 10.04 738.38 311.23"/><polygon id="penthouse" class="cls-1" points="11.74 797.62 33.87 508.08 338.3 507.83 331.92 797.62 11.74 797.62"/><polygon id="_401" data-name="401" class="cls-1" points="351.06 507.83 342.64 798.98 526.98 801.02 526.98 507.83 351.06 507.83"/><polygon id="_402" data-name="402" class="cls-1" points="538.55 507.83 702.64 507.83 712.17 801.02 538.55 801.02 538.55 507.83"/><polygon id="penthouse402" class="cls-1" points="712.17 507.83 989.11 507.83 1011.75 801.02 723.06 798.64 712.17 507.83"/><polygon id="entry_401" class="cls-1" points="363.06 828.51 489.96 828.51 489.96 852.51 367.4 852.51 363.06 828.51"/><polygon id="entry_402" class="cls-1" points="558.89 828.51 686.3 827.23 679.66 854.55 557.11 854.55 558.89 828.51"/><rect id="high_spreed_wifi" class="cls-1" x="783.45" y="883.79" width="107.62" height="131.36"/><rect id="centrail_air" class="cls-1" x="899.11" y="883.79" width="107.62" height="131.36"/></g></svg>