<svg xmlns="http://www.w3.org/2000/svg"
    xmlns:xlink="http://www.w3.org/1999/xlink" viewBox="0 0 1536 1024">
    <defs>
        <style>.cls-1{fill:#ed1818;stroke:#fc0000;stroke-miterlimit:10;opacity:0.01;}</style>
    </defs>
    <g id="Layer_1" data-name="Layer 1">
        <image width="1536" height="1024" xlink:href="./solareign-est-rooftop-terrace.PNG"/>
    </g>
    <g id="rooftop_terrace">
        <polygon id="pool" class="cls-1" points="84.43 710.81 373.45 710.81 400 115.4 126.3 115.4 84.43 710.81"/>
        <path id="cover_table" class="cls-1" d="M448.26,185.11l108.38.63,36.51,59c-15.83,13-31.92,55.15-31.92,55.15L496,317.62l-59.23-17.36c-13.28-35.75-30.13-54.64-30.13-54.64C419.56,234.9,448.26,185.11,448.26,185.11Zm-22.6,312.38,63.7,18.77,65.53-19.41c8.85-30.81,32.77-59.23,32.77-59.23-17.87-20.17-38.81-61.28-38.81-61.28H439.57c-7.91,14.3-46.72,62.81-46.72,62.81C408.3,450.64,425.66,497.49,425.66,497.49Zm-7.28,219.19c14.56,1.41,66.26,19,66.26,19,10.34-4,67.79-18.89,67.79-18.89,4.34-24,32.68-64,32.68-64-12.77-14-38.05-63.91-38.05-63.91H433.87c-17.36,30.29-46.47,66.55-46.47,66.55C402.64,671,418.38,716.68,418.38,716.68Z"/>
        <polygon id="washroom" class="cls-1" points="774.81 51.57 774.81 217.87 914.04 217.87 912.34 51.57 774.81 51.57"/>
        <path id="toylet" class="cls-1" d="M759.49,51.57l-2,211.41H616.51l3.58-211.41ZM606.64,386.38l40.85,1.71h7.83v-7.28h74.55v6.76l44.81-.38-1.91-110.42H599.15Z"/>
        <polygon id="dask" class="cls-1" points="774.68 230.81 914.04 230.81 916.43 319.32 911.66 410.89 910.98 367.32 774.81 368.34 774.68 230.81"/>
        <polygon id="room1" class="cls-1" points="929.02 51.57 1072.51 51.57 1079.66 262.98 931.06 262.98 929.02 51.57"/>
        <polygon id="_1" data-name="1" class="cls-1" points="1089.23 51.57 1432.51 51.57 1445.91 263.11 1097.02 262.98 1089.23 51.57"/>
        <path id="table" class="cls-1" d="M746.72,680.17H587.66V502H746.72Zm159.07-31.4H746.72V807.83H905.79ZM1064.85,502H905.79v167h159.06Z"/>
        <polygon id="room" class="cls-1" points="1109.79 807.83 1481.79 807.83 1464.94 537.96 1101.11 537.96 1109.79 807.83"/>
        <polygon id="restaurant" class="cls-1" points="1464.94 524.17 1445.91 278.3 931.83 278.3 929.02 320.85 926.47 412.85 911.66 412.85 910.98 367.32 774.81 368.34 774.68 387.19 729.87 387.57 729.87 380.81 655.32 380.81 655.32 388.08 606.64 386.38 599.15 276.77 602.55 51.57 100.77 51.57 49.7 807.83 1097.53 807.83 1089.23 457.53 1096.68 458.21 1099.23 524.43 1464.94 524.17"/>
        <rect id="wifi" class="cls-1" x="1185.74" y="834" width="144.38" height="157.4"/>
        <rect id="centrail_air" class="cls-1" x="1335.11" y="834" width="144.38" height="157.4"/>
        <path id="entry" class="cls-1" d="M624.68,838v36.25H545.53L542,838Zm340.09,36.25L968.34,838h-81.7l-3.07,36.25Z"/>
    </g>
</svg>