<svg xmlns="http://www.w3.org/2000/svg"
    xmlns:xlink="http://www.w3.org/1999/xlink" viewBox="0 0 1024 1024">
    <defs>
        <style>.cls-1,.cls-2{fill:#ff0d0d;stroke-miterlimit:10;opacity:0.01;}.cls-1{stroke:#f90000;}.cls-2{stroke:#ff0d0d;}</style>
    </defs>
    <g id="Layer_1" data-name="Layer 1">
        <image width="1024" height="1024" xlink:href="./Solareign_East_SecondFloor-01.png"/>
    </g>
    <g id="solareign_east_second_floor">
        <polygon id="office_201" class="cls-1" points="20.77 841.53 310.47 841.53 317.62 524.6 40.43 525.28 20.77 841.53"/>
        <polygon id="_2001" data-name="2001" class="cls-1" points="321.53 841.53 329.11 526.34 507.75 526.3 507.06 841.53 321.53 841.53"/>
        <polygon id="_2020" data-name="2020" class="cls-1" points="518.17 525.19 696 526.3 703.91 841.53 518.17 840.68 518.17 525.19"/>
        <polygon id="office_203" class="cls-1" points="707.23 525.19 985.53 525.45 1004.25 840.51 714.55 841.53 707.23 525.19"/>
        <polygon id="conference" class="cls-1" points="390.4 408.17 387.57 514.72 42.38 512 71.15 45.45 374.81 44.6 370.21 309.96 378.47 408.34 390.4 408.17"/>
        <polygon id="lobby" class="cls-1" points="390.4 408.17 390.4 341.11 410.81 341.94 410.81 344.68 417.83 344.75 417.83 342 483.06 342.13 483.06 344.25 488.77 344.34 488.77 341.11 526.47 342.13 526.47 396.77 567.91 397.02 567.91 400 575.15 399.92 575.15 397.45 641.36 397.53 641.36 399.75 647.91 399.75 647.91 396.85 720.34 396.94 735.66 307.06 738 307.06 737.36 296.81 734.94 296.81 741.19 266.68 969.45 268.08 985.79 514.72 387.57 514.72 390.4 408.17"/>
        <path id="mens" class="cls-1" d="M386,45.28H529.19L530,201.83,382.72,203Zm-3.32,165.1,7.68,130.73,20.41.83v2.74l7,.06V342l65.23.13v2.13l5.71.08v-3.23l37.7,1L530,210.38Z"/>
        <polygon id="elevator" class="cls-1" points="538.89 45.28 678.47 45.28 683.91 295.49 538.89 296.85 538.89 45.28"/>
        <polygon id="r1" class="cls-1" points="688.34 45.28 695.49 296.85 734.94 296.81 741.19 266.68 740.43 260.3 970.21 258.38 956.6 45.28 688.34 45.28"/>
        <rect id="high_spreed_wifi" class="cls-2" x="780.43" y="872.49" width="107.62" height="131.36"/>
        <rect id="centrail_air" class="cls-2" x="896.09" y="872.49" width="107.62" height="131.36"/>
    </g>
</svg>